<svg width="1339" height="829" viewBox="0 0 1339 829" fill="none" xmlns="http://www.w3.org/2000/svg">
<path d="M1169.5 48C1128.5 123.5 1117.17 -4.01949 1125.5 -16.4999C1133.83 -28.9803 1339 -3.4533 1339 -3.4533L1364 77.9998C1364 77.9998 1336.36 135.13 1298 141C1259.64 146.87 1347.5 -13.5002 1265 71.9998C1182.5 157.5 1210.5 -27.5 1169.5 48Z" fill="#0ACF83"/>
<path d="M229.782 786.165C363.083 729.307 327.227 876.125 286.198 878.019C245.17 879.913 -62.5129 831.51 -68.4824 809.389C-74.4518 787.267 33.154 823.085 -9.38181 715.201C-51.9176 607.317 108.267 544.948 69.0775 643.026C29.8884 741.104 34.1905 754.79 122.426 722.652C210.661 690.514 96.4797 843.023 229.782 786.165Z" fill="#0ACF83"/>
</svg>
